<?xml version="1.0" standalone="no"?>
<!DOCTYPE svg PUBLIC "-//W3C//DTD SVG 20010904//EN"
 "http://www.w3.org/TR/2001/REC-SVG-20010904/DTD/svg10.dtd">
<svg version="1.0" xmlns="http://www.w3.org/2000/svg"
 width="1200.000000pt" height="1200.000000pt" viewBox="0 0 1200.000000 1200.000000"
 preserveAspectRatio="xMidYMid meet">

<g transform="translate(0.000000,1200.000000) scale(0.100000,-0.100000)"
fill="#000000" stroke="none">
<path d="M5440 11970 c-752 -74 -1443 -271 -2103 -601 -589 -295 -1104 -667
-1572 -1134 -669 -669 -1174 -1487 -1463 -2375 -54 -166 -123 -411 -147 -525
-110 -516 -145 -838 -145 -1335 0 -468 42 -881 130 -1265 37 -163 67 -279 100
-395 341 -1180 1050 -2242 2015 -3015 835 -668 1807 -1095 2858 -1254 602 -92
1256 -87 1865 13 1291 213 2495 857 3386 1811 916 981 1467 2183 1601 3495
103 1006 -54 2042 -448 2960 -740 1721 -2250 3012 -4052 3464 -327 82 -608
129 -961 161 -246 22 -817 19 -1064 -5z m1032 -195 c1343 -114 2593 -680 3546
-1609 507 -494 862 -978 1171 -1596 308 -617 487 -1225 573 -1945 20 -171 23
-234 22 -630 0 -477 -9 -604 -70 -960 -167 -974 -582 -1894 -1202 -2665 -184
-229 -523 -578 -742 -766 -884 -755 -1968 -1230 -3100 -1358 -270 -31 -442
-38 -770 -33 -337 5 -413 11 -715 53 -817 116 -1619 414 -2302 856 -147 95
-133 86 -323 225 -704 516 -1312 1232 -1714 2017 -425 830 -636 1704 -636
2636 0 1207 362 2346 1063 3340 638 906 1567 1638 2592 2043 578 228 1113 350
1755 400 141 11 686 6 852 -8z"/>
<path d="M7452 11156 c-31 -30 -55 -57 -52 -59 3 -3 21 -8 40 -11 30 -5 50 2
130 46 l95 51 -55 13 c-88 21 -97 19 -158 -40z"/>
<path d="M7091 11131 l-63 -59 53 -11 c50 -11 54 -10 79 14 35 33 42 32 61
-13 14 -33 22 -39 65 -49 27 -6 50 -10 51 -9 2 2 -11 37 -28 79 -31 75 -31 76
-78 86 -25 5 -53 12 -61 15 -9 3 -40 -18 -79 -53z"/>
<path d="M5606 11109 c-32 -5 -60 -10 -62 -11 -1 -2 6 -63 15 -136 13 -95 15
-135 7 -137 -18 -6 -268 -37 -270 -33 -1 2 -9 63 -18 136 -8 73 -17 134 -19
136 -2 2 -34 -1 -71 -6 -65 -10 -67 -11 -63 -37 3 -14 21 -161 40 -326 20
-165 38 -311 41 -324 5 -22 7 -23 72 -16 37 4 68 8 69 8 1 1 -7 69 -18 151
-11 82 -17 151 -14 154 4 4 266 40 272 37 1 0 9 -57 18 -125 9 -69 18 -138 21
-153 l6 -29 61 7 c34 4 65 10 69 14 3 3 -2 72 -13 152 -19 147 -30 243 -49
407 -12 107 -20 142 -28 141 -4 -1 -34 -5 -66 -10z"/>
<path d="M6160 11098 c0 -13 -3 -39 -6 -59 l-6 -36 106 -8 c100 -6 106 -8 106
-28 0 -12 -9 -143 -20 -291 -11 -148 -19 -270 -17 -272 1 -1 32 -5 68 -8 l67
-7 6 48 c3 26 13 159 22 295 l17 247 102 -6 c101 -6 102 -6 108 18 4 13 7 38
7 56 0 31 -1 32 -52 37 -52 6 -471 36 -495 36 -7 0 -13 -10 -13 -22z"/>
<path d="M6906 11023 c-3 -10 -26 -108 -51 -218 -24 -110 -58 -256 -74 -325
-16 -69 -28 -126 -27 -127 1 -1 63 -17 137 -34 238 -55 383 -89 384 -89 4 0
26 112 23 114 -1 2 -86 22 -187 45 -102 23 -187 43 -189 45 -5 6 28 160 38
176 6 10 37 6 138 -18 72 -17 148 -34 170 -38 l40 -6 11 52 c6 29 10 55 8 57
-2 2 -78 20 -168 40 -90 20 -166 38 -168 40 -3 2 3 37 13 79 l18 75 31 -6 c18
-4 99 -22 180 -41 82 -19 152 -34 156 -34 11 0 31 103 23 111 -4 4 -50 16
-102 28 -80 17 -301 68 -377 86 -15 3 -23 0 -27 -12z"/>
<path d="M4823 10981 c-28 -9 -54 -18 -57 -21 -5 -5 40 -188 95 -384 l19 -70
-37 35 c-21 19 -75 70 -121 114 -47 44 -90 85 -96 90 -7 6 -44 40 -82 77 l-69
67 -65 -18 c-53 -15 -64 -22 -62 -37 5 -26 174 -658 177 -662 3 -3 117 28 123
33 2 2 -8 45 -22 97 -14 51 -41 148 -60 216 -19 68 -30 122 -25 120 7 -3 68
-59 331 -307 l57 -53 66 17 c36 10 65 23 65 29 0 18 -172 660 -179 667 -3 3
-29 -1 -58 -10z"/>
<path d="M4085 10737 c-27 -11 -51 -21 -52 -22 -3 -2 247 -648 253 -654 7 -8
124 42 124 53 0 7 -15 50 -33 97 -19 46 -74 189 -123 317 -63 165 -93 232
-104 231 -8 0 -37 -10 -65 -22z"/>
<path d="M8015 10644 c-123 -31 -215 -122 -270 -269 -32 -83 -33 -172 -4 -249
35 -94 150 -183 272 -208 51 -11 55 -14 83 -65 16 -30 39 -63 51 -75 l22 -20
40 28 c22 16 40 34 40 39 0 6 -13 26 -29 45 -17 19 -30 40 -30 46 0 7 20 24
44 38 77 45 159 168 187 279 18 73 7 176 -24 230 -58 98 -182 174 -298 182
-35 2 -73 2 -84 -1z m160 -143 c52 -23 102 -81 111 -126 16 -88 -35 -216 -114
-285 -44 -39 -48 -41 -60 -23 -7 10 -26 37 -42 61 -34 48 -44 50 -82 19 l-28
-23 27 -37 c14 -20 24 -39 22 -41 -11 -12 -89 36 -115 70 -26 33 -29 46 -29
108 0 56 6 83 26 126 49 106 128 170 209 170 19 0 53 -9 75 -19z"/>
<path d="M3771 10598 l-74 -43 -43 -180 c-24 -98 -48 -191 -52 -204 -8 -23
-15 -12 -81 107 -40 73 -77 132 -82 132 -5 0 -34 -14 -64 -31 l-55 -31 29 -52
c16 -28 36 -62 43 -76 7 -14 71 -130 142 -257 l129 -232 59 32 c32 17 58 35
58 39 0 4 -20 44 -45 89 -25 45 -45 89 -45 98 0 31 33 151 41 151 5 0 81 -43
169 -95 l160 -96 82 45 81 44 -51 26 c-29 15 -67 34 -84 44 -18 10 -95 51
-170 91 -76 40 -140 76 -143 81 -3 5 -1 26 4 47 8 38 67 262 77 296 8 25 -3
22 -85 -25z"/>
<path d="M8574 10148 c-153 -219 -194 -293 -194 -352 0 -64 42 -138 107 -190
150 -119 272 -127 370 -24 49 52 303 419 297 429 -3 5 -28 25 -56 44 l-51 34
-130 -187 c-149 -215 -168 -238 -214 -253 -71 -23 -176 61 -175 140 1 46 16
71 180 303 l111 157 -47 34 c-26 18 -52 36 -59 40 -7 4 -58 -60 -139 -175z"/>
<path d="M5700 10059 c-962 -83 -1808 -470 -2484 -1137 -131 -129 -356 -383
-356 -401 0 -12 219 -149 420 -263 504 -287 991 -486 1515 -617 329 -82 621
-124 1018 -146 l117 -7 0 89 c0 88 0 88 -31 106 -17 9 -33 26 -36 36 -2 10
-16 24 -29 30 -30 13 -31 37 -1 61 33 28 12 56 -38 53 -41 -3 -180 60 -225
102 -28 26 -150 89 -192 99 -36 8 -36 31 0 50 41 21 63 49 52 66 -5 8 -10 20
-10 26 0 17 42 32 78 26 18 -2 38 1 45 6 9 8 21 6 42 -8 39 -26 54 -25 90 4
20 17 30 33 30 52 0 21 8 34 32 49 18 11 31 25 29 30 -1 6 -21 20 -44 33 -23
13 -44 33 -47 45 -6 24 -58 54 -63 37 -6 -18 -30 -11 -51 16 -29 36 -27 52 5
46 17 -3 33 3 49 18 27 25 25 40 -6 40 -29 0 -79 28 -120 66 l-35 34 -47 -20
c-26 -12 -51 -30 -57 -40 -6 -11 -29 -29 -52 -40 l-41 -19 -19 24 c-16 21 -28
25 -74 25 -46 0 -54 3 -54 18 0 24 -41 62 -66 62 -17 0 -36 33 -72 122 -2 4 3
8 11 8 20 0 31 31 15 41 -10 7 -10 11 0 21 16 16 15 78 -2 101 -12 16 -14 14
-20 -18 -13 -66 -57 -55 -77 19 -7 24 -28 56 -50 78 -22 21 -39 44 -39 52 0 9
-18 25 -40 36 -35 18 -60 45 -60 66 0 3 15 4 34 1 32 -5 35 -3 41 24 4 18 17
35 31 41 13 6 24 19 24 28 0 26 9 29 38 14 15 -8 36 -14 47 -14 39 0 63 -12
73 -35 14 -31 64 -65 70 -47 2 6 9 12 16 12 8 0 34 23 60 50 26 28 51 50 56
50 5 0 17 -13 27 -30 20 -34 53 -41 53 -11 0 10 7 21 15 25 8 3 15 2 15 -2 0
-14 92 -73 105 -68 7 2 19 24 27 48 12 35 20 44 42 46 15 2 33 -1 39 -7 13
-10 57 -3 108 17 14 5 37 8 52 5 34 -7 49 11 67 79 13 44 17 49 60 63 26 9 57
26 70 40 12 13 28 21 36 18 12 -4 14 35 14 241 l0 246 -67 -1 c-38 -1 -111 -5
-163 -10z"/>
<path d="M6090 9757 c0 -360 -6 -338 87 -326 54 7 57 6 84 -22 23 -25 31 -28
60 -22 19 4 52 8 74 8 36 0 40 -3 43 -28 2 -18 -2 -29 -12 -33 -9 -3 -16 -13
-16 -21 0 -8 -9 -28 -21 -44 l-21 -29 21 -43 c12 -24 21 -60 21 -80 0 -32 3
-37 23 -36 41 2 82 -17 94 -42 12 -24 40 -42 106 -68 15 -6 27 -18 27 -27 0
-14 11 -15 81 -10 65 5 86 3 105 -9 29 -19 31 -35 5 -35 -11 0 -21 -9 -24 -21
-4 -14 -11 -20 -21 -16 -9 4 -19 -1 -24 -10 -7 -11 -20 -14 -51 -11 -47 4 -52
-4 -16 -28 32 -21 32 -33 -3 -45 -16 -5 -38 -23 -50 -38 -20 -28 -23 -29 -89
-24 -37 3 -72 9 -77 14 -12 11 -73 12 -80 1 -3 -5 6 -31 19 -58 14 -27 25 -51
25 -54 0 -3 -18 -4 -41 -2 -37 4 -41 2 -35 -16 4 -12 1 -26 -9 -35 -19 -20
-19 -47 0 -47 8 0 15 -4 15 -10 0 -5 -4 -10 -8 -10 -4 0 -13 -13 -19 -30 -8
-20 -18 -30 -32 -30 -11 0 -45 -22 -75 -49 -40 -36 -60 -48 -75 -44 -12 3 -21
1 -21 -4 0 -5 -16 -35 -35 -67 l-35 -58 0 -190 0 -189 59 -59 c32 -33 62 -60
66 -60 4 0 20 -11 37 -25 16 -14 35 -25 41 -25 16 -1 49 -68 37 -75 -6 -4 -10
-20 -10 -37 l0 -31 98 6 c112 8 379 46 532 77 587 118 1214 361 1804 700 129
74 368 221 385 236 9 8 -204 250 -339 384 -698 697 -1585 1091 -2602 1156
l-108 7 0 -316z"/>
<path d="M2773 9929 c-29 -11 -74 -40 -100 -64 -160 -143 -146 -356 35 -532
70 -69 140 -98 232 -98 92 0 148 23 219 90 85 80 113 173 85 282 -8 31 -16 59
-18 61 -2 1 -33 -9 -70 -24 -51 -21 -65 -31 -60 -43 32 -78 28 -133 -13 -182
-55 -65 -141 -77 -215 -30 -58 37 -140 135 -163 195 -25 66 -14 126 33 175 56
58 120 70 188 33 16 -9 25 -2 62 49 l42 60 -52 24 c-65 30 -133 32 -205 4z"/>
<path d="M9581 9778 l-53 -10 37 -38 c34 -35 40 -37 81 -32 l44 5 -6 -47 c-6
-44 -4 -50 26 -81 18 -19 36 -32 40 -30 4 3 13 41 20 85 l12 80 -38 40 c-43
44 -59 47 -163 28z"/>
<path d="M9253 9701 c-62 -21 -148 -84 -196 -143 -125 -152 -116 -327 23 -465
78 -78 126 -98 235 -98 78 0 97 4 142 27 81 43 168 130 205 206 29 59 33 76
33 147 -1 102 -26 157 -111 241 -99 98 -210 127 -331 85z m203 -137 c76 -36
126 -136 105 -210 -26 -95 -142 -208 -231 -224 -161 -29 -280 142 -197 282 32
54 100 120 152 147 48 26 123 28 171 5z"/>
<path d="M9931 9624 c-40 -7 -76 -16 -79 -19 -3 -3 5 -17 19 -30 20 -20 40
-26 114 -35 137 -15 134 -17 84 38 -23 26 -48 50 -53 53 -6 3 -44 0 -85 -7z"/>
<path d="M5889 9554 c-7 -9 -37 -26 -65 -39 -44 -19 -53 -28 -59 -57 -4 -18
-16 -48 -27 -66 -18 -29 -25 -33 -50 -28 -15 3 -56 -2 -90 -10 -46 -12 -67
-13 -85 -5 -36 17 -39 15 -61 -39 -25 -59 -44 -70 -75 -43 -12 11 -34 27 -48
35 -24 15 -27 15 -42 -3 -9 -10 -21 -19 -27 -19 -12 0 -46 33 -52 51 -3 10
-25 -5 -67 -43 -34 -32 -69 -58 -78 -58 -24 0 -68 30 -79 53 -5 13 -23 25 -44
30 -19 4 -47 12 -62 17 -24 7 -28 5 -28 -11 0 -12 -10 -23 -25 -29 -19 -7 -25
-17 -25 -39 0 -37 -11 -44 -44 -31 -43 16 -29 -5 24 -38 28 -17 50 -37 50 -45
0 -8 18 -32 40 -55 22 -22 40 -50 40 -62 0 -30 18 -60 35 -60 9 0 15 9 15 23
0 13 6 32 14 42 13 18 14 18 25 -3 6 -12 19 -22 27 -22 12 0 14 -5 9 -17 -15
-35 -22 -93 -13 -99 5 -3 1 -20 -10 -37 -18 -32 -18 -33 2 -77 14 -31 26 -44
37 -42 9 2 31 -14 50 -36 27 -31 43 -40 77 -45 24 -3 54 -14 66 -26 20 -19 23
-19 53 -4 18 8 35 23 38 32 5 16 95 61 121 61 6 0 23 -14 40 -31 32 -34 93
-69 122 -69 10 0 23 -5 30 -12 9 -9 5 -19 -20 -45 -18 -18 -41 -33 -51 -33
-16 0 -17 -2 -7 -15 7 -9 20 -13 28 -10 8 3 32 0 53 -6 30 -10 39 -17 39 -35
0 -16 12 -29 43 -46 56 -31 60 -58 12 -87 -31 -18 -35 -24 -25 -36 15 -18 -4
-43 -56 -76 -32 -19 -34 -19 -66 -3 -34 18 -135 21 -151 4 -5 -4 -4 -16 1 -27
13 -24 8 -32 -47 -71 -26 -19 -37 -32 -27 -32 22 0 189 -84 205 -104 7 -9 25
-22 40 -29 114 -60 132 -67 173 -67 24 0 49 -5 56 -12 17 -17 15 -53 -3 -68
-20 -17 -19 -37 3 -44 9 -3 24 -19 33 -34 10 -18 30 -32 57 -40 23 -7 49 -23
56 -35 13 -20 18 -34 32 -104 2 -13 22 -32 52 -48 26 -14 62 -46 80 -70 19
-24 58 -58 88 -75 33 -19 59 -41 66 -58 6 -15 22 -49 35 -76 12 -28 23 -56 23
-63 0 -27 45 -94 60 -90 8 3 21 6 28 8 14 4 22 -6 41 -53 9 -23 17 -28 47 -28
28 0 37 -5 41 -20 6 -23 69 -59 99 -57 25 3 31 -35 9 -56 -12 -13 -27 -15 -60
-10 -38 5 -45 3 -45 -11 0 -9 12 -21 26 -26 21 -8 25 -15 20 -34 -5 -19 -1
-26 14 -31 11 -3 20 -11 20 -16 0 -5 7 -9 15 -9 9 0 39 -23 67 -51 48 -48 50
-52 37 -76 -7 -14 -26 -35 -41 -48 -18 -15 -24 -26 -17 -31 7 -4 9 -20 4 -43
-4 -20 -9 -58 -10 -86 -3 -33 -10 -54 -21 -62 -27 -20 -29 -99 -5 -184 11 -39
27 -79 35 -88 7 -9 17 -40 21 -68 6 -43 3 -61 -15 -98 -31 -63 -36 -117 -16
-159 22 -46 22 -159 0 -180 -16 -16 -58 -13 -78 5 -19 18 -55 9 -73 -17 -40
-59 -59 -71 -127 -85 -58 -11 -75 -20 -113 -57 -42 -40 -48 -43 -83 -37 -28 5
-56 0 -99 -16 -64 -23 -70 -29 -46 -49 17 -14 20 -46 5 -55 -17 -11 -11 -24
20 -40 17 -9 30 -22 30 -31 0 -11 6 -13 20 -9 39 12 72 -47 35 -61 -8 -4 -15
-16 -15 -29 0 -25 -22 -35 -83 -35 -34 0 -38 3 -43 29 -7 36 -23 43 -74 35
-26 -4 -45 -15 -55 -30 -18 -28 -64 -30 -102 -6 -29 18 -47 8 -32 -19 15 -29
-39 -95 -91 -109 -22 -6 -42 -15 -46 -21 -4 -7 -23 -8 -50 -4 -26 3 -44 2 -44
-3 0 -14 66 -62 85 -62 10 0 30 -11 47 -25 16 -14 37 -25 47 -25 10 0 26 -9
37 -21 15 -16 16 -23 6 -37 -35 -47 -54 -109 -60 -186 -3 -44 -11 -91 -19
-102 -10 -16 -11 -28 -3 -49 6 -16 10 -35 9 -44 -3 -27 27 -101 41 -101 5 0
27 16 49 35 21 19 43 35 49 35 6 0 16 15 22 34 25 77 64 104 223 156 89 29 97
34 97 57 0 17 -20 46 -65 92 -62 65 -78 91 -54 91 21 0 69 -42 115 -100 40
-51 52 -60 79 -60 19 0 39 8 49 19 17 18 15 21 -46 72 -58 48 -82 79 -61 79
11 0 48 -26 97 -67 43 -36 56 -40 56 -19 0 25 -48 73 -89 89 -38 16 -58 33
-48 43 6 6 93 -32 101 -45 11 -17 53 -13 60 5 9 23 10 21 -34 50 -22 15 -40
31 -40 35 0 5 20 9 45 9 49 0 64 15 74 80 16 96 100 0 87 -99 -5 -39 -3 -50
10 -55 22 -8 22 -9 16 20 -3 19 3 34 29 60 18 19 37 34 43 34 5 0 30 13 56 30
25 16 80 40 120 54 45 14 78 31 84 43 5 10 12 25 16 33 4 8 23 16 43 18 19 2
41 10 47 18 7 8 18 14 25 14 7 0 29 14 50 30 21 17 42 30 47 30 19 0 118 93
124 116 4 14 14 24 24 24 10 0 25 12 35 26 17 27 15 32 -20 48 -5 3 2 15 18
28 31 27 33 46 10 95 -12 26 -14 40 -6 52 8 12 8 23 0 36 -7 14 -7 20 1 23 7
2 12 18 12 35 0 37 30 91 59 107 27 14 26 22 -4 58 -18 21 -25 42 -25 70 0 23
-4 44 -10 47 -5 3 -7 19 -3 35 3 17 1 36 -4 42 -18 22 -25 88 -12 104 10 12 8
23 -10 54 -16 29 -19 44 -13 57 7 12 5 24 -5 40 -8 12 -23 61 -34 109 -10 48
-30 111 -44 141 -18 41 -22 60 -15 73 11 21 -2 34 -35 35 -11 0 -21 8 -23 19
-2 10 -16 29 -31 42 -15 13 -43 51 -61 86 -19 35 -42 72 -52 82 -10 11 -20 28
-24 38 -3 10 -9 18 -14 18 -4 0 -17 16 -29 36 -17 28 -27 35 -49 33 -48 -4
-62 1 -62 19 0 22 -19 41 -99 96 -119 83 -140 101 -136 114 3 7 -58 74 -136
149 -77 75 -142 148 -146 161 -3 13 0 35 6 48 9 20 8 28 -4 40 -8 9 -13 20
-10 25 4 5 -2 9 -13 9 -10 0 -27 9 -37 20 -10 11 -23 20 -30 20 -6 0 -44 34
-83 77 -53 56 -72 83 -72 104 0 21 -9 33 -35 49 -40 24 -44 48 -15 75 26 23
40 75 40 146 0 44 4 60 21 75 11 10 36 47 56 82 29 52 38 62 55 56 15 -4 31 5
62 35 24 23 56 45 71 50 30 8 49 46 34 67 -10 12 0 54 12 54 5 0 9 14 9 30 0
27 3 30 30 30 35 0 37 12 10 62 -29 55 -13 63 103 51 50 -5 98 -12 106 -14 8
-2 24 10 35 28 13 20 29 32 44 33 27 0 28 11 2 28 -11 7 -20 22 -20 33 0 19 4
20 38 14 29 -5 42 -2 52 9 7 9 20 16 29 16 9 0 21 12 28 26 l12 26 -90 -5
c-88 -6 -90 -5 -101 19 -6 13 -18 24 -26 24 -26 0 -112 55 -112 72 0 19 -53
40 -91 36 -23 -3 -24 1 -30 60 -3 35 -11 68 -18 75 -16 16 -14 62 4 77 8 7 15
20 15 30 0 10 10 24 22 32 26 17 19 52 -9 44 -10 -2 -41 -7 -69 -11 -45 -6
-54 -4 -82 20 -29 24 -38 26 -80 20 -42 -5 -58 -2 -115 26 -37 17 -67 35 -67
40 0 11 -70 89 -80 89 -4 0 -14 -7 -21 -16z m219 -539 l29 -90 114 -5 114 -5
-84 -60 c-47 -33 -88 -63 -93 -66 -4 -3 7 -51 26 -107 19 -56 32 -102 29 -102
-4 0 -44 27 -90 61 l-83 60 -86 -61 c-47 -34 -87 -61 -89 -59 -2 2 10 45 26
94 16 50 29 95 29 101 0 7 -39 40 -87 75 l-88 64 112 3 112 3 33 99 c18 55 35
96 40 92 4 -4 20 -47 36 -97z"/>
<path d="M2240 9357 c-94 -27 -176 -100 -227 -206 -23 -45 -28 -69 -28 -126 1
-99 37 -176 122 -255 73 -68 133 -102 214 -120 128 -29 276 47 350 180 79 143
61 272 -57 400 -103 111 -252 162 -374 127z m162 -148 c55 -28 135 -105 160
-153 55 -108 -11 -246 -130 -271 -80 -17 -214 53 -276 144 -63 90 -42 207 49
272 52 36 134 40 197 8z"/>
<path d="M9834 9089 c-121 -16 -293 -152 -330 -260 -39 -115 -13 -235 72 -328
57 -64 118 -91 203 -91 71 0 122 14 120 34 0 6 -9 34 -18 61 -16 45 -21 50
-47 48 -127 -9 -168 8 -203 81 -26 54 -26 88 0 143 39 82 192 183 276 183 110
0 192 -107 157 -204 -22 -61 -23 -59 30 -105 l49 -43 19 24 c30 38 51 124 43
176 -9 70 -49 144 -105 196 -80 75 -158 100 -266 85z"/>
<path d="M2689 8747 c-18 -23 -36 -47 -41 -53 -5 -7 11 -26 43 -51 l52 -40 30
36 c17 20 37 43 44 51 10 14 4 22 -42 58 l-53 42 -33 -43z"/>
<path d="M1718 8705 l-35 -61 119 -68 c65 -38 118 -71 118 -74 0 -4 -127 -231
-135 -240 -1 -1 -36 17 -76 41 -41 23 -95 55 -121 70 l-47 27 -30 -54 c-17
-29 -31 -58 -31 -63 0 -9 569 -345 595 -351 16 -4 80 107 69 118 -5 4 -62 38
-126 75 -65 37 -120 71 -123 76 -5 7 112 219 131 238 2 2 61 -29 131 -69 70
-40 131 -75 135 -77 6 -3 68 103 68 117 0 6 -69 48 -396 235 l-210 122 -36
-62z"/>
<path d="M2683 8278 c-344 -532 -545 -1068 -622 -1668 -32 -248 -41 -610 -21
-835 59 -664 254 -1246 601 -1797 74 -118 216 -318 226 -318 3 0 0 7 -7 14
-10 12 6 28 92 92 114 85 441 303 531 353 42 24 56 37 53 49 -3 10 -43 161
-90 337 -102 384 -115 434 -206 780 -67 250 -90 340 -166 628 l-28 107 -503 0
-503 0 0 75 0 75 541 0 c512 0 542 1 567 19 59 41 244 132 357 177 189 74 352
116 600 156 53 8 183 13 380 13 261 -1 320 -4 450 -23 320 -49 652 -138 909
-244 38 -15 73 -28 77 -28 5 0 9 29 9 64 l0 65 -57 26 c-120 54 -383 155 -523
198 -379 118 -677 163 -1022 154 -280 -7 -491 -44 -738 -128 -177 -60 -443
-189 -577 -281 l-42 -28 -15 52 c-8 29 -31 113 -50 186 l-34 133 26 11 c15 5
63 21 107 35 336 104 665 169 980 194 205 17 594 6 775 -21 376 -55 727 -163
1043 -321 65 -33 120 -59 122 -59 3 0 5 34 5 75 l0 76 -77 35 c-957 441 -1855
503 -2633 184 -69 -28 -132 -53 -140 -56 -13 -4 -25 27 -63 157 -26 89 -45
165 -42 167 6 7 154 37 299 61 157 27 317 47 492 62 181 15 708 6 854 -14 471
-66 834 -180 1182 -372 64 -36 120 -65 123 -65 3 0 5 112 5 249 l0 249 -72 6
c-40 3 -127 8 -193 11 -731 35 -1602 299 -2355 713 -205 112 -517 303 -536
328 -9 12 -27 -9 -91 -108z"/>
<path d="M9180 8363 c-282 -186 -732 -429 -1054 -568 -516 -222 -1100 -381
-1589 -430 l-67 -7 65 -64 c36 -35 65 -70 65 -77 0 -14 72 -77 88 -77 6 0 12
-6 15 -14 5 -12 37 -4 161 39 380 132 727 189 1146 189 237 0 351 -8 568 -40
233 -33 522 -100 522 -120 0 -15 -71 -307 -76 -313 -2 -2 -52 14 -111 37 -148
56 -188 69 -338 107 -455 117 -908 124 -1400 24 -95 -19 -130 -27 -217 -50
l-38 -10 17 -27 c9 -15 23 -34 30 -42 8 -8 19 -23 26 -32 11 -16 17 -17 76 -3
202 48 454 75 706 75 370 0 693 -48 1095 -163 150 -44 410 -134 410 -144 0 -8
-61 -247 -71 -280 l-10 -31 -75 44 c-276 163 -592 284 -914 348 -177 35 -248
41 -525 41 -245 0 -298 -3 -425 -23 -79 -13 -148 -26 -153 -29 -5 -3 5 -18 22
-34 17 -15 31 -35 31 -43 0 -10 6 -13 15 -9 23 8 58 -26 44 -44 -7 -7 -10 -16
-7 -18 3 -3 67 1 143 10 174 19 483 19 646 0 311 -37 608 -123 897 -260 133
-64 254 -132 260 -147 2 -4 186 -8 408 -8 l404 0 0 88 c0 176 -43 506 -96 731
-74 315 -172 586 -320 881 -82 163 -242 433 -299 504 l-20 25 -55 -36z"/>
<path d="M10213 8091 c-172 -69 -313 -131 -313 -136 0 -12 99 -254 125 -305
22 -44 72 -97 109 -117 44 -23 141 -33 205 -22 77 14 207 79 258 129 63 60 86
112 86 191 0 57 -8 85 -65 225 -39 97 -70 159 -79 160 -8 1 -155 -55 -326
-125z m311 -113 c39 -99 40 -162 3 -211 -31 -40 -116 -86 -213 -113 -116 -32
-167 -1 -224 136 -18 45 -31 82 -29 84 5 4 422 175 429 176 3 0 19 -33 34 -72z"/>
<path d="M1275 7778 c-22 -62 -35 -102 -35 -112 0 -6 24 -19 53 -28 28 -9 177
-59 329 -112 153 -52 279 -92 282 -88 15 25 43 123 36 127 -5 3 -35 14 -67 24
-32 11 -177 60 -322 110 -145 50 -266 91 -268 91 -2 0 -6 -6 -8 -12z"/>
<path d="M1795 7359 c-50 -8 -293 -42 -540 -75 -71 -10 -131 -18 -133 -20 -5
-3 -31 -116 -32 -134 0 -9 67 -63 156 -125 172 -120 180 -126 337 -238 59 -42
112 -77 117 -77 4 0 13 21 19 48 6 26 13 56 17 68 4 17 -7 29 -65 69 -39 26
-71 50 -71 54 0 3 15 65 33 136 l33 130 86 14 86 13 10 37 c6 20 14 53 17 74
8 41 11 40 -70 26z m-255 -184 c0 -9 -43 -170 -47 -174 -2 -3 -52 29 -112 70
-61 40 -107 76 -104 79 10 11 263 35 263 25z"/>
<path d="M10140 7304 c10 -36 21 -68 24 -72 4 -3 41 -9 82 -13 42 -4 78 -10
81 -13 3 -2 20 -64 39 -138 18 -73 34 -133 34 -134 0 0 -32 -23 -71 -49 -57
-40 -69 -53 -65 -70 3 -11 10 -44 16 -73 7 -28 14 -52 17 -52 6 0 558 397 591
425 l25 21 -19 71 -18 71 -55 5 c-50 5 -174 21 -566 72 -60 8 -115 15 -121 15
-8 0 -6 -21 6 -66z m495 -127 l100 -12 -113 -79 c-63 -43 -115 -76 -117 -74
-4 4 -45 158 -45 170 0 11 55 9 175 -5z"/>
<path d="M10915 7358 c2 -7 9 -31 14 -54 10 -35 16 -43 51 -54 22 -7 40 -15
40 -17 0 -3 -11 -19 -25 -37 -28 -37 -29 -45 -14 -100 l11 -38 49 53 c58 64
63 79 46 143 -13 49 -13 50 -91 83 -89 38 -87 37 -81 21z"/>
<path d="M6097 7333 c-7 -6 -10 -523 -3 -523 2 0 46 24 98 54 52 29 138 75
191 101 96 48 105 57 88 83 -7 12 -13 11 -37 -1 l-28 -15 -28 62 c-15 33 -28
68 -28 77 0 9 -11 33 -25 53 -14 20 -25 46 -25 57 0 33 -56 59 -131 59 -36 0
-69 -3 -72 -7z"/>
<path d="M7757 7262 c-34 -38 -13 -58 23 -22 11 11 20 25 20 30 0 16 -26 11
-43 -8z"/>
<path d="M7378 7219 c-10 -5 -18 -14 -18 -19 0 -13 51 -12 70 0 13 9 13 11 0
20 -19 12 -30 12 -52 -1z"/>
<path d="M7568 7213 c-19 -5 -32 -33 -21 -44 21 -21 73 17 57 42 -5 9 -8 10
-36 2z"/>
<path d="M1866 7026 c-9 -30 -16 -59 -16 -64 0 -9 92 -42 118 -42 5 0 15 21
21 48 7 26 14 54 17 63 3 13 -7 19 -43 28 -27 7 -56 14 -65 17 -13 4 -20 -7
-32 -50z"/>
<path d="M6620 6893 c-82 -29 -337 -135 -422 -175 l-108 -51 0 -79 c0 -43 2
-78 4 -78 3 0 69 33 148 74 79 40 196 95 261 122 87 36 117 53 117 66 0 10 -4
18 -10 18 -5 0 -17 12 -27 26 -16 25 -16 27 1 40 13 9 33 11 62 7 40 -5 44 -4
44 16 0 16 -6 21 -27 20 -16 0 -35 -3 -43 -6z"/>
<path d="M10790 6660 c-96 -9 -249 -23 -339 -30 l-163 -13 5 -60 c3 -32 8 -61
11 -64 3 -4 105 2 226 13 121 10 220 17 220 14 0 -3 -97 -76 -214 -163 l-214
-158 5 -62 c3 -34 9 -66 13 -70 4 -5 90 -1 191 7 101 9 236 21 299 26 63 5
137 12 164 16 l48 6 -6 46 c-3 24 -6 54 -6 65 0 18 -5 19 -47 13 -91 -11 -406
-37 -410 -33 -2 3 93 76 211 163 l215 159 1 41 c0 58 -10 104 -24 103 -6 -1
-90 -9 -186 -19z"/>
<path d="M1207 6660 c-92 -24 -171 -91 -196 -167 -13 -42 -47 -371 -38 -379 2
-3 65 -10 138 -15 74 -6 140 -12 147 -14 6 -2 12 -20 12 -40 0 -32 3 -35 30
-36 17 -1 36 -2 43 -3 6 -1 14 14 17 34 6 40 -14 38 183 19 66 -6 121 -8 123
-6 11 10 35 306 30 355 -13 111 -77 192 -185 233 -64 24 -240 35 -304 19z
m258 -154 c29 -9 63 -29 80 -46 30 -31 30 -32 28 -141 0 -61 -3 -113 -6 -115
-2 -3 -44 -1 -93 3 l-89 8 2 78 2 77 -44 0 -44 0 -7 -70 -7 -70 -47 0 c-26 0
-69 3 -95 7 l-47 6 7 76 c11 118 42 174 110 200 39 14 185 7 250 -13z"/>
<path d="M6620 6591 c-157 -55 -321 -123 -444 -182 l-86 -42 0 -64 0 -63 38
16 c71 30 357 132 475 169 121 38 146 56 113 81 -17 12 -15 16 24 53 39 37 50
70 25 77 -5 2 -71 -19 -145 -45z"/>
<path d="M9116 6003 c-3 -10 -55 -216 -117 -458 -61 -242 -158 -624 -215 -848
-57 -225 -104 -414 -104 -420 0 -7 75 -50 168 -96 92 -46 236 -122 321 -168
l155 -86 19 24 c33 41 144 233 206 356 119 240 210 473 280 720 80 283 140
668 141 901 l0 92 -424 0 c-396 0 -425 -1 -430 -17z"/>
<path d="M8206 5408 c-19 -27 -5 -48 19 -28 16 14 21 50 6 50 -6 0 -17 -10
-25 -22z"/>
<path d="M8012 5367 c-22 -23 -30 -57 -13 -57 18 0 61 42 61 61 0 26 -22 24
-48 -4z"/>
<path d="M8045 5113 c-28 -7 -55 -33 -55 -54 0 -60 157 -66 176 -6 12 38 -61
74 -121 60z"/>
<path d="M7595 4936 c-28 -20 -12 -46 28 -46 44 0 64 21 42 44 -20 20 -45 20
-70 2z"/>
<path d="M7856 4911 c-16 -17 -16 -19 3 -24 24 -6 31 0 31 25 0 23 -12 23 -34
-1z"/>
<path d="M5809 4229 c0 -8 0 -66 1 -130 1 -65 -3 -119 -8 -122 -4 -4 -60 -15
-123 -26 -63 -11 -152 -27 -199 -35 -133 -24 -120 -33 -169 104 -40 109 -46
120 -65 115 -150 -42 -338 -112 -472 -177 l-92 -43 44 -119 c24 -66 44 -123
44 -127 0 -7 -310 -216 -334 -225 -11 -4 -37 22 -156 158 l-36 41 -104 -83
c-58 -46 -162 -139 -231 -207 l-125 -123 -38 143 c-21 78 -48 180 -61 227 -12
47 -40 150 -60 230 -21 80 -41 148 -44 152 -12 14 -432 -262 -610 -401 -30
-23 -29 -24 84 -148 267 -291 588 -555 915 -752 l82 -49 161 163 c89 89 212
202 272 250 402 319 834 509 1299 571 140 18 439 18 576 0 577 -78 1107 -352
1562 -808 64 -65 120 -118 125 -118 4 0 70 43 148 95 329 221 578 443 847 755
63 74 188 239 188 250 0 12 -589 326 -596 317 -1 -1 -36 -137 -77 -302 -127
-500 -160 -630 -163 -634 -2 -2 -43 38 -91 89 -95 101 -316 300 -334 300 -5 0
-46 -38 -91 -85 -44 -47 -84 -85 -89 -85 -4 0 -83 50 -174 111 -125 84 -164
115 -160 128 2 9 25 61 49 116 40 91 42 101 27 111 -27 19 -275 142 -333 165
-89 35 -212 79 -224 79 -6 0 -33 -48 -59 -107 -26 -60 -51 -112 -55 -117 -5
-5 -65 5 -137 22 -70 17 -170 40 -220 52 l-93 22 0 123 c0 118 -1 123 -22 130
-13 4 -148 10 -300 12 -229 4 -278 3 -279 -8z"/>
<path d="M5990 3503 c-524 -30 -1008 -223 -1440 -571 -101 -82 -370 -343 -370
-359 0 -6 17 -18 39 -27 l38 -18 144 144 c428 425 870 664 1374 739 116 18
429 15 545 -5 513 -87 977 -337 1406 -758 l90 -89 50 27 c27 15 51 29 53 31 8
6 -159 171 -270 267 -417 359 -927 581 -1404 611 -168 10 -200 11 -255 8z"/>
<path d="M5774 3305 c-460 -68 -883 -296 -1284 -692 l-135 -134 80 -36 c221
-98 529 -193 796 -247 173 -35 523 -75 657 -76 l42 0 0 565 0 565 80 0 80 0 0
-565 0 -565 33 0 c63 0 364 29 466 45 206 31 346 63 581 132 98 29 351 124
448 169 l96 45 -65 66 c-100 103 -301 266 -445 362 -292 195 -612 322 -919
366 -123 18 -388 18 -511 0z"/>
<path d="M7440 1918 c-372 -141 -742 -227 -1160 -270 -158 -16 -638 -16 -790
1 -322 34 -556 79 -824 158 -65 19 -122 31 -127 26 -4 -4 -44 -96 -89 -203
-45 -107 -119 -283 -165 -390 -45 -107 -85 -205 -89 -217 -6 -20 1 -24 106
-57 549 -171 1010 -241 1593 -240 482 0 856 47 1314 165 223 57 601 185 601
203 0 5 -20 68 -44 140 -25 72 -88 259 -141 416 -53 157 -100 288 -103 291 -4
3 -41 -7 -82 -23z m124 -215 c3 -10 21 -109 42 -221 33 -182 35 -207 24 -247
-28 -98 -137 -173 -325 -220 -272 -69 -518 -51 -583 42 -28 41 -30 51 -67 248
-19 99 -37 194 -41 212 -6 31 -6 31 47 41 232 45 282 53 289 45 4 -4 15 -51
24 -103 33 -190 58 -306 72 -332 21 -41 63 -58 142 -58 82 0 189 30 228 63 44
38 45 86 4 312 -20 110 -35 202 -33 204 4 6 121 29 150 30 13 1 24 -6 27 -16z
m-2815 -55 l174 -33 160 -190 c88 -104 163 -194 167 -198 4 -5 20 58 35 140
16 81 32 152 36 157 8 9 146 -10 167 -23 7 -4 -1 -64 -24 -181 -57 -292 -86
-435 -90 -441 -2 -4 -21 -3 -41 1 -21 5 -64 13 -95 20 l-56 11 -219 256 c-120
141 -227 267 -239 281 l-21 25 -43 -219 c-23 -120 -45 -222 -49 -225 -6 -6
-166 23 -176 32 -2 3 17 120 45 260 68 349 70 359 83 359 7 1 90 -14 186 -32z
m1689 -175 l3 -43 -215 0 -216 0 0 -90 0 -90 200 0 200 0 0 -45 0 -45 -197 -2
-198 -3 -3 -92 -3 -93 223 -2 223 -3 3 -42 3 -43 -400 0 -401 0 0 313 c0 173
3 317 7 320 4 4 178 6 387 5 l381 -3 3 -42z"/>
</g>
</svg>
